<?xml version="1.0" encoding="UTF-8" standalone="no"?>
<!-- Created with Inkscape (http://www.inkscape.org/) -->

<svg
   xmlns:dc="http://purl.org/dc/elements/1.1/"
   xmlns:cc="http://creativecommons.org/ns#"
   xmlns:rdf="http://www.w3.org/1999/02/22-rdf-syntax-ns#"
   xmlns:svg="http://www.w3.org/2000/svg"
   xmlns="http://www.w3.org/2000/svg"
   xmlns:sodipodi="http://sodipodi.sourceforge.net/DTD/sodipodi-0.dtd"
   xmlns:inkscape="http://www.inkscape.org/namespaces/inkscape"
   version="1.1"
   id="svg3699"
   width="250"
   height="500"
   viewBox="0 0 250 500"
   sodipodi:docname="rab_pull.svg"
   inkscape:version="0.92.2 (5c3e80d, 2017-08-06)">
  <metadata
     id="metadata3705">
    <rdf:RDF>
      <cc:Work
         rdf:about="">
        <dc:format>image/svg+xml</dc:format>
        <dc:type
           rdf:resource="http://purl.org/dc/dcmitype/StillImage" />
        <dc:title></dc:title>
      </cc:Work>
    </rdf:RDF>
  </metadata>
  <defs
     id="defs3703" />
  <sodipodi:namedview
     pagecolor="#ffffff"
     bordercolor="#666666"
     borderopacity="1"
     objecttolerance="10"
     gridtolerance="10"
     guidetolerance="10"
     inkscape:pageopacity="0"
     inkscape:pageshadow="2"
     inkscape:window-width="1920"
     inkscape:window-height="1018"
     id="namedview3701"
     showgrid="false"
     inkscape:zoom="1.2006673"
     inkscape:cx="135.23721"
     inkscape:cy="241.8276"
     inkscape:window-x="-8"
     inkscape:window-y="-8"
     inkscape:window-maximized="1"
     inkscape:current-layer="layer2" />
  <g
     inkscape:groupmode="layer"
     id="layer2"
     inkscape:label="svg"
     style="display:inline">
    <path
       style="display:inline;fill:#d59758;fill-opacity:1;stroke:#000000;stroke-width:2.5;stroke-linecap:butt;stroke-linejoin:miter;stroke-miterlimit:4;stroke-dasharray:none;stroke-opacity:1"
       d="m 117.80061,162.80955 c 0,0 -54.502476,-45.92983 -59.916133,-71.748808 -5.413656,-25.818975 27.068281,-77.456926 27.068281,-81.2048419 0,-3.7479158 -1.249305,-7.0793965 -6.246526,-4.9972211 -4.997221,2.0821754 15.824533,12.493053 21.238189,17.073839 5.413659,4.580786 38.312029,32.481937 41.643509,59.133782 3.33148,26.65185 -16.24097,81.62128 -16.24097,81.62128 z"
       id="path4560"
       inkscape:connector-curvature="0"
       inkscape:label="left_ear"
       sodipodi:nodetypes="cssssscc" />
    <path
       style="fill:#ffffff;fill-opacity:1;stroke:#000000;stroke-width:2.5;stroke-linecap:butt;stroke-linejoin:miter;stroke-miterlimit:4;stroke-dasharray:none;stroke-opacity:1"
       d="m 125.34696,162.68758 c 0,0 -2.91504,-49.55578 23.32037,-90.782852 26.23541,-41.227073 73.70901,-60.591305 81.62127,-62.0488282 7.91227,-1.4575228 1.66574,-6.4547439 -1.45752,-5.2054386 -3.12326,1.2493053 -0.41643,17.9067088 -0.20822,26.2354108 0.20822,8.328702 6.87118,45.391425 -14.78344,74.333668 -21.65463,28.94223 -74.58746,47.02921 -81.99096,57.58337 z"
       id="path4562"
       inkscape:connector-curvature="0"
       sodipodi:nodetypes="cssscscc"
       inkscape:label="right_ear" />
    <path
       style="display:inline;fill:#d59758;fill-opacity:1;stroke:#d59758;stroke-width:3.47199988;stroke-miterlimit:4;stroke-dasharray:none;stroke-dashoffset:0;stroke-opacity:1"
       d="m 168.91705,249.58775 c -0.0954,-1.10024 -3.20964,-2.06125 -6.67959,-2.06125 -2.28874,0 -3.75697,-0.29874 -4.34162,-0.88339 -0.48586,-0.48587 -1.77169,-0.88339 -2.85738,-0.88339 -1.24638,0 -2.61896,-0.54271 -3.72376,-1.47232 -0.96236,-0.80978 -2.04276,-1.47232 -2.40089,-1.47232 -0.35813,0 -0.65115,-0.24742 -0.65115,-0.54981 0,-0.3024 -0.70207,-0.63367 -1.56015,-0.73617 -0.85808,-0.10249 -1.8519,-0.70192 -2.20848,-1.33206 -1.13208,-2.00059 -2.38336,-3.17637 -4.05781,-3.81299 -1.65958,-0.63098 -1.81441,-0.8689 -2.45175,-3.76751 -0.2191,-0.99644 -1.06779,-2.05492 -2.12492,-2.65017 -1.14618,-0.6454 -1.7182,-1.40195 -1.63993,-2.16896 0.24774,-2.42793 -0.73321,-5.00589 -1.90481,-5.00589 -1.00002,0 -1.13106,-0.44566 -1.13106,-3.84652 0,-2.87584 -0.22293,-3.93206 -0.8834,-4.1855 -1.0763,-0.41302 -1.12926,-1.57932 -0.14723,-3.24255 0.58893,-0.99745 0.58893,-1.30013 0,-1.51341 -0.40489,-0.14663 -0.73616,-0.85405 -0.73616,-1.57205 0,-0.718 -0.32463,-1.6301 -0.72141,-2.02687 -0.56927,-0.56927 -0.56927,-0.96504 0,-1.87658 0.86665,-1.38774 0.96193,-6.25334 0.13248,-6.76597 -0.7676,-0.4744 -0.76522,-2.65017 0.003,-2.65017 0.35634,0 0.53209,-1.71894 0.44169,-4.32012 -0.10086,-2.90228 0.13051,-4.84704 0.70499,-5.92563 0.69401,-1.303 0.71682,-1.82699 0.12104,-2.78097 -0.5988,-0.95883 -0.56646,-1.5115 0.1755,-2.99878 0.50027,-1.00282 0.90959,-3.09204 0.90959,-4.64271 0,-1.55068 0.26501,-2.9832 0.58892,-3.18338 0.32391,-0.20019 0.58893,-0.96672 0.58893,-1.70339 0,-0.73668 0.19877,-1.54003 0.4417,-1.78524 0.24293,-0.24521 0.44169,-1.01818 0.44169,-1.71771 0,-1.08171 0.30818,-1.25558 2.06125,-1.16287 3.66068,0.1936 10.87889,1.45878 11.45466,2.00774 0.30771,0.29339 1.28589,0.53343 2.17372,0.53343 0.88783,0 1.76378,0.24196 1.94655,0.53769 0.18277,0.29572 1.39099,0.71654 2.68493,0.93516 1.29395,0.21861 2.35263,0.63919 2.35263,0.93463 0,0.29544 0.66254,0.53716 1.47232,0.53716 0.80977,0 1.47232,0.26502 1.47232,0.58893 0,0.32391 0.29122,0.58893 0.64715,0.58893 0.7587,0 4.81286,1.83135 5.24213,2.36799 0.16196,0.20245 0.69199,0.55793 1.17786,0.78994 3.79625,1.81279 10.22673,6.68613 14.76913,11.19281 2.24211,2.22448 4.07657,4.21482 4.07657,4.42298 0,0.20817 0.59629,1.05237 1.32509,1.87601 1.68706,1.90661 2.53878,3.24528 3.81701,5.99927 0.56377,1.21466 1.20648,2.20848 1.42824,2.20848 0.22177,0 0.57717,0.79201 0.78978,1.76003 0.21261,0.96802 0.63119,1.91122 0.93018,2.09601 0.29899,0.18478 0.54362,0.98287 0.54362,1.77353 0,0.79066 0.22846,1.43757 0.50769,1.43757 1.03983,0 2.03257,7.62255 2.03257,15.60659 0,7.98405 -0.99274,15.6066 -2.03257,15.6066 -0.27923,0 -0.51612,0.59629 -0.52642,1.32509 -0.0103,0.7288 -0.40783,1.83952 -0.88339,2.46827 -0.47557,0.62875 -0.86466,1.59422 -0.86466,2.14547 0,1.08542 -1.14134,1.71724 -3.10209,1.71724 -0.68142,0 -1.86356,0.58677 -2.62695,1.30394 -1.16614,1.09553 -1.57098,1.18967 -2.53291,0.58893 -0.62971,-0.39326 -2.20859,-0.71502 -3.50863,-0.71502 -1.97108,0 -2.3637,0.19565 -2.3637,1.17786 0,0.64782 -0.26502,1.17785 -0.58893,1.17785 -0.32391,0 -0.58893,-0.26501 -0.58893,-0.58892 0,-0.88562 -6.90573,-0.74569 -7.26603,0.14723 -0.16337,0.40489 -0.32003,0.47114 -0.34813,0.14723 z m 7.67351,-21.57362 c 2.05697,-0.685 4.65208,-2.92699 4.65208,-4.01905 0,-0.33805 0.26502,-0.61463 0.58893,-0.61463 0.34045,0 0.58892,-1.87017 0.58892,-4.43266 0,-4.17235 -0.1124,-4.55747 -1.91401,-6.55805 -2.06796,-2.29634 -4.8305,-3.7325 -7.1797,-3.7325 -1.88823,0 -6.80735,2.37333 -6.80735,3.28435 0,0.38166 -0.39752,1.02385 -0.88339,1.42708 -0.64435,0.53477 -0.88339,1.95218 -0.88339,5.23828 0,4.15723 0.13928,4.6741 1.80366,6.69328 2.5059,3.0401 6.11973,4.01751 10.03425,2.7139 z"
       id="path4537"
       inkscape:connector-curvature="0"
       inkscape:label="patch_fill" />
    <ellipse
       id="path3709"
       ry="60.371407"
       rx="73.327827"
       cy="222.9093"
       cx="125.73616"
       style="fill:none;stroke:#000000;stroke-width:2.5;stroke-miterlimit:4;stroke-dasharray:none;stroke-opacity:1"
       inkscape:label="face" />
    <ellipse
       style="fill:#000000;fill-opacity:1;stroke:none;stroke-width:2.83823109;stroke-miterlimit:4;stroke-dasharray:none;stroke-opacity:1"
       id="path4518"
       cx="78.62191"
       cy="218.49234"
       rx="8.5394583"
       ry="9.4228506"
       inkscape:label="left_eye" />
    <ellipse
       style="fill:#000000;fill-opacity:1;stroke:none;stroke-width:2.83823109;stroke-miterlimit:4;stroke-dasharray:none;stroke-opacity:1"
       id="path4518-2"
       cx="173.73381"
       cy="218.49236"
       rx="8.5394583"
       ry="9.4228506"
       inkscape:label="right_eye" />
    <path
       style="fill:none;stroke:#000000;stroke-width:2.5;stroke-linecap:butt;stroke-linejoin:miter;stroke-miterlimit:4;stroke-dasharray:5, 2.5;stroke-dashoffset:0;stroke-opacity:1"
       d="m 131.91991,164.31095 c 0,0 -14.08762,42.4932 3.53357,68.9046 17.62119,26.41139 57.12603,14.7232 57.12603,14.7232"
       id="path4535"
       inkscape:connector-curvature="0"
       sodipodi:nodetypes="czc"
       inkscape:label="patch_edge" />
    <g
       id="g4556"
       inkscape:label="mouth">
      <path
         sodipodi:nodetypes="cc"
         inkscape:connector-curvature="0"
         id="path4548"
         d="m 107.1492,253.37587 28.06033,10.42822"
         style="display:inline;fill:none;stroke:#000000;stroke-width:1.5;stroke-linecap:butt;stroke-linejoin:miter;stroke-miterlimit:4;stroke-dasharray:none;stroke-opacity:1" />
      <path
         sodipodi:nodetypes="cc"
         inkscape:connector-curvature="0"
         id="path4550"
         d="M 107.18492,263.83981 135.45347,253.2391"
         style="display:inline;fill:none;stroke:#000000;stroke-width:1.5;stroke-linecap:butt;stroke-linejoin:miter;stroke-miterlimit:4;stroke-dasharray:none;stroke-opacity:1" />
    </g>
    <path
       inkscape:connector-curvature="0"
       id="path4568"
       d="m 141.34276,281.80212 c 0,0 31.50766,55.65371 32.97998,77.44405 1.47232,21.79034 -14.42874,48.29211 -52.41461,48.58657 v 0 C 83.922262,407.53828 73.321555,381.03651 74.793875,359.24617 76.266196,337.45583 105.71261,281.21319 105.71261,281.21319"
       style="display:inline;fill:none;stroke:#000000;stroke-width:2.5;stroke-linecap:butt;stroke-linejoin:miter;stroke-miterlimit:4;stroke-dasharray:none;stroke-opacity:1"
       sodipodi:nodetypes="csccsc"
       inkscape:label="body" />
    <path
       style="fill:#ffffff;fill-opacity:1;stroke:#000000;stroke-width:2.5;stroke-linecap:butt;stroke-linejoin:miter;stroke-miterlimit:4;stroke-dasharray:none;stroke-opacity:1"
       d="m 98.645465,291.22497 c -7.067138,-1.76678 -31.213192,20.02356 -38.869258,30.3298 -7.656066,10.30624 -15.312132,20.31802 -12.073027,36.80801 3.239105,16.48999 7.95053,23.55713 17.078917,26.50177 9.128386,2.94464 17.078916,-10.01178 19.140165,-17.96231 2.061248,-7.95053 2.061248,-11.77857 2.355712,-22.9682 0.294464,-11.18963 18.845696,-47.40872 12.367491,-52.70907 z"
       id="path4571"
       inkscape:connector-curvature="0"
       inkscape:label="left arm" />
    <path
       style="display:inline;fill:#ffffff;fill-opacity:1;stroke:#000000;stroke-width:2.5;stroke-linecap:butt;stroke-linejoin:miter;stroke-miterlimit:4;stroke-dasharray:none;stroke-opacity:1"
       d="m 146.21633,291.37019 c 7.06714,-1.76678 31.21319,20.02356 38.86926,30.3298 7.65606,10.30624 15.31213,20.31802 12.07303,36.80801 -3.23911,16.48999 -7.95053,23.55713 -17.07892,26.50177 -9.12839,2.94464 -17.07892,-10.01178 -19.14017,-17.96231 -2.06125,-7.95053 -2.06125,-11.77857 -2.35571,-22.9682 -0.29447,-11.18963 -18.8457,-47.40872 -12.36749,-52.70907 z"
       id="path4571-1"
       inkscape:connector-curvature="0"
       inkscape:label="right arm" />
    <path
       style="fill:none;stroke:#000000;stroke-width:2.5;stroke-linecap:butt;stroke-linejoin:miter;stroke-miterlimit:4;stroke-dasharray:none;stroke-opacity:1"
       d="m 92.903416,400.32391 c 0,0 -9.864547,21.64311 -33.716137,31.65489 -23.85159,10.01178 -42.108363,21.49588 -41.813899,34.4523 0.294465,12.95641 0.588929,23.26266 19.434629,27.38515 18.845701,4.1225 58.009421,-0.29446 73.321551,-23.26266 15.31213,-22.9682 11.77857,-62.72085 11.77857,-62.72085 0,0 -19.14017,-0.44169 -29.004714,-7.50883 z"
       id="path4603"
       inkscape:connector-curvature="0"
       sodipodi:nodetypes="cssszcc"
       inkscape:label="left_leg" />
    <path
       style="display:inline;fill:none;stroke:#000000;stroke-width:2.5;stroke-linecap:butt;stroke-linejoin:miter;stroke-miterlimit:4;stroke-dasharray:none;stroke-opacity:1"
       d="m 150.76561,400.91284 c 0,0 10.01178,21.05418 33.86337,31.06596 23.85159,10.01178 42.10836,21.49588 41.8139,34.4523 -0.29447,12.95641 -0.58893,23.26266 -19.43463,27.38515 -18.8457,4.1225 -58.00942,-0.29446 -73.32155,-23.26266 -15.31213,-22.9682 -11.77857,-62.72085 -11.77857,-62.72085 0,0 17.07892,10e-6 28.85748,-6.9199 z"
       id="path4603-7"
       inkscape:connector-curvature="0"
       sodipodi:nodetypes="cssszcc"
       inkscape:label="right_leg" />
    <rect
       style="display:inline;opacity:1;fill:#8f0000;fill-opacity:1;stroke:#000000;stroke-width:1.49337947;stroke-miterlimit:4;stroke-dasharray:none;stroke-dashoffset:0;stroke-opacity:1"
       id="rect4627-6"
       width="20.995501"
       height="84.29364"
       x="114.29494"
       y="380.39624"
       inkscape:label="pump_middle" />
    <rect
       style="opacity:1;fill:#8f0000;fill-opacity:1;stroke:#000000;stroke-width:2.17371917;stroke-miterlimit:4;stroke-dasharray:none;stroke-dashoffset:0;stroke-opacity:1"
       id="rect4627"
       width="113.73144"
       height="32.969093"
       x="67.926971"
       y="461.29352"
       inkscape:label="pump_base" />
    <rect
       style="display:inline;opacity:1;fill:#8f0000;fill-opacity:1;stroke:#000000;stroke-width:1.44440007;stroke-miterlimit:4;stroke-dasharray:none;stroke-dashoffset:0;stroke-opacity:1"
       id="rect4627-6-8"
       width="96.817986"
       height="17.100136"
       x="76.383698"
       y="362.77151"
       inkscape:label="pump_top" />
  </g>
</svg>
